<svg width="160" height="79" viewBox="0 0 160 79" fill="none" xmlns="http://www.w3.org/2000/svg">
<path d="M87.3023 51.5236L2 38.0358" stroke="url(#paint0_linear_74_5369)" stroke-width="5.4583"/>
<path d="M75.6624 11.6443L92.8738 80.2539" stroke="#B72C4D" stroke-width="5.4583"/>
<path d="M119.838 18.1339L158.095 -8.87119" stroke="#B72C4D" stroke-width="5.4583"/>
<path d="M137.982 -29.0742L120.965 -16.577C114.814 -12.0596 113.136 -6.46655 113.428 -1.19422C113.731 4.24433 116.158 9.38456 118.306 12.4011L159.46 69.177L157.25 70.7793L155.04 72.3807L113.872 15.5853L113.859 15.5664C112.738 13.992 111.553 11.9501 110.54 9.59463L73.8316 17.5792L72.6716 12.2446L108.785 4.39095C108.367 2.69934 108.079 0.926329 107.978 -0.890869C107.596 -7.77233 109.917 -15.2365 117.734 -20.9769L134.751 -33.4742L137.982 -29.0742Z" fill="#B72C4D"/>
<path d="M90.5377 80.1577L129.941 32.8544" stroke="#B72C4D" stroke-width="5.4583"/>
<path d="M64.7712 -23.2783L75.8486 12.4804" stroke="#B72C4D" stroke-width="5.4583"/>
<defs>
<linearGradient id="paint0_linear_74_5369" x1="2.18605" y1="45.7976" x2="87.1163" y2="43.7618" gradientUnits="userSpaceOnUse">
<stop stop-color="#DF2853" stop-opacity="0"/>
<stop offset="0.841346" stop-color="#B72C4D"/>
</linearGradient>
</defs>
</svg>
